<svg font-family="sans-serif" viewBox="0 0 753 387"
  xmlns:xlink="http://www.w3.org/1999/xlink" text-decoration="none" font-style="normal" width="100%"
  xmlns="http://www.w3.org/2000/svg" font-size="15" version="1.1" font-weight="normal">
  <title>Average Hourly Temperature in Toronto</title>
  <defs>
    <clipPath id="plot-sample-bounds-16">
      <rect y="0" x="75.8" height="365" width="601.3"></rect>
    </clipPath>
    <clipPath id="plot-sample-bounds-scaled-16">
      <rect y="0" x="758.3" height="3650" width="6013.5"></rect>
    </clipPath>
  </defs>
  <g transform="scale(0.1)">
    <path fill-opacity="1.000" stroke-width="10" stroke="#5ca0b4" d="" fill="#5ca0b4" stroke-opacity="1.0"></path>
    <path fill-opacity="1.000" stroke-width="10" stroke="#83c2d5" d="M758,3650l1260,0l12,-49l7,-25l10,-74l10,-74l6,-43l16,-105l1,-8l16,-96l7,-44l10,-98l5,-50l11,-98l6,-50l11,-94l7,-53l3,-148l-10,-45l-17,-80l-4,-23l-12,-21l-17,-35l-16,-39l-17,-30l-10,-23l-6,-13l-17,-37l-16,-45l-17,-40l-5,-13l-11,-29l-17,-49l-16,-47l-7,-23l-10,-37l-16,-54l-17,-47l-4,-10l-12,-43l-17,-31l-16,-30l-17,-21l-14,-23l-2,-6l-17,-49l-16,-62l-8,-31l-9,-59l-12,-89l-3,-148l15,-148l17,-54l16,-51l15,-42l2,-5l16,-22l17,-26l16,-32l17,-38l7,-25l9,-32l17,-63l11,-53l5,-32l17,-90l5,-26l11,-81l12,-67l5,-30l16,-97l3,-21l14,-58l4,-16l-1260,0ZM6350,100l-1,74l10,89l8,59l8,49l17,99l16,91l12,57l5,24l12,124l4,39l17,99l1,10l15,77l17,63l1,7l15,78l15,70l2,19l11,129l-6,148l-5,30l-17,108l-1,10l-15,64l-17,66l-4,18l-12,43l-17,56l-13,49l-3,8l-17,44l-16,37l-17,38l-9,21l-7,18l-17,60l-16,70l-17,70l-16,78l-14,148l5,148l6,147l3,50l7,98l9,106l4,42l13,127l1,21l11,148l4,40l10,108l-2,74l422,0l0,-3550Z" fill="#83c2d5" stroke-opacity="1.0"></path>
    <path fill-opacity="1.000" stroke-width="10" stroke="#679568" d="M2017,100l-3,12l-15,62l-2,14l-16,97l-6,37l-11,60l-12,88l-4,21l-17,90l-6,37l-10,49l-17,63l-10,36l-6,21l-17,38l-16,32l-17,25l-16,23l-4,9l-13,37l-16,50l-17,55l-1,5l-16,148l3,148l14,99l8,49l9,37l16,62l17,49l16,27l17,21l16,30l17,31l11,39l5,13l17,48l16,53l9,34l8,26l16,46l17,50l10,26l6,16l17,40l16,46l17,35l5,11l11,26l17,30l16,38l17,36l10,18l6,31l17,80l8,37l-3,148l-5,40l-12,107l-5,37l-12,111l-4,37l-11,111l-6,33l-16,98l-3,17l-14,96l-7,52l-9,66l-11,82l-6,21l-13,53l585,0l7,-19l16,-46l3,-9l14,-63l16,-80l1,-5l16,-80l16,-68l17,-77l14,-71l2,-13l17,-64l16,-57l4,-14l13,-42l16,-83l5,-23l12,-73l13,-74l-12,-148l-1,-3l-17,-34l-16,-36l-17,-30l-16,-29l-9,-16l-8,-10l-16,-26l-17,-25l-16,-28l-17,-28l-15,-31l-1,-2l-17,-37l-16,-31l-17,-35l-16,-39l-3,-4l-14,-37l-17,-42l-16,-39l-17,-30l-16,-39l-17,-42l-16,-40l-15,-27l-2,-4l-16,-34l-17,-52l-16,-50l-3,-8l-14,-66l-16,-76l-1,-6l-16,-111l-6,-37l-10,-148l5,-148l11,-77l8,-70l9,-40l16,-64l11,-44l6,-21l16,-48l17,-49l15,-30l1,-4l17,-38l16,-45l17,-45l7,-16l9,-28l17,-50l16,-55l4,-15l13,-62l17,-81l1,-5l15,-46l10,-28ZM5684,100l8,74l6,33l16,115l17,93l10,55l6,26l17,70l10,52l7,27l16,81l8,40l9,35l16,58l11,55l6,22l16,58l17,63l1,4l15,72l15,76l2,27l10,121l-3,148l-7,52l-12,96l-5,21l-16,58l-17,64l-1,5l-15,42l-17,37l-16,39l-12,30l-5,11l-16,35l-17,31l-17,24l-16,26l-9,21l-8,15l-16,30l-17,24l-16,22l-17,24l-16,21l-8,12l-9,19l-16,39l-17,35l-16,47l-3,8l-10,148l4,148l9,98l4,49l12,135l2,13l15,89l9,59l7,53l13,95l4,32l15,116l1,7l17,85l11,56l5,49l3,25l668,0l1,-74l-11,-121l-3,-27l-11,-148l-2,-42l-11,-106l-6,-63l-7,-85l-9,-123l-2,-25l-5,-147l-5,-148l12,-132l1,-16l15,-70l17,-70l1,-8l15,-65l17,-60l9,-23l7,-17l17,-38l16,-36l17,-44l4,-13l12,-44l17,-56l14,-48l2,-12l17,-65l16,-71l17,-108l7,-40l6,-148l-13,-148l-17,-77l-13,-71l-3,-15l-17,-62l-13,-70l-3,-20l-17,-99l-3,-29l-13,-136l-3,-12l-14,-69l-14,-79l-2,-13l-17,-98l-6,-37l-10,-74l-9,-74l2,-74Z" fill="#679568" stroke-opacity="1.0"></path>
    <path fill-opacity="1.000" stroke-width="10" stroke="#74a877" d="M2601,100l-9,25l-16,49l-17,81l-14,67l-3,11l-16,55l-17,50l-11,32l-5,12l-17,46l-16,45l-17,38l-3,7l-13,27l-17,48l-16,49l-7,24l-10,40l-16,64l-9,44l-8,62l-12,85l-4,119l-1,29l1,17l9,131l7,45l15,103l2,11l16,77l13,60l4,12l16,50l17,52l16,34l17,30l16,41l17,41l15,36l1,3l17,29l16,39l17,43l13,34l4,6l16,40l17,34l16,31l17,37l16,33l17,28l16,28l17,25l16,26l7,8l10,19l16,29l17,30l16,36l17,34l11,148l-11,63l-13,84l-4,15l-16,84l-15,49l-2,7l-16,58l-17,63l-4,20l-12,65l-17,77l-1,6l-15,63l-17,85l-16,79l-15,69l-2,6l-16,45l-8,23l484,0l3,-5l16,-32l17,-34l1,-3l15,-51l17,-39l16,-44l5,-14l12,-39l16,-64l13,-45l4,-18l16,-68l13,-62l4,-20l16,-85l8,-43l9,-51l16,-97l17,-125l3,-22l-3,-15l-17,-82l-8,-51l-8,-14l-17,-33l-16,-30l-17,-31l-16,-33l-5,-7l-12,-17l-16,-29l-17,-26l-16,-22l-17,-21l-16,-23l-7,-10l-10,-18l-16,-25l-17,-22l-16,-23l-17,-19l-16,-24l-11,-17l-6,-11l-16,-31l-17,-36l-17,-44l-10,-26l-6,-19l-17,-38l-16,-40l-17,-38l-4,-13l-12,-40l-17,-60l-13,-48l-3,-15l-17,-54l-16,-60l-6,-19l-11,-47l-16,-64l-8,-37l-9,-74l-10,-74l-1,-148l11,-94l6,-53l11,-44l16,-55l13,-49l4,-10l16,-44l17,-41l16,-53l17,-33l16,-39l17,-36l16,-35l3,-5l14,-36l16,-49l17,-48l7,-15l10,-24l16,-42l17,-36l16,-39l4,-7l13,-23l16,-26l14,-25ZM5228,100l7,74l17,79l16,69l17,57l16,61l7,30l10,34l16,57l15,57l2,6l16,59l17,56l9,27l8,20l16,50l17,51l8,27l8,39l17,73l6,35l10,106l5,42l-4,148l-1,11l-13,137l-3,16l-17,74l-13,58l-3,12l-17,51l-16,49l-11,36l-6,14l-17,47l-16,49l-14,38l-3,4l-16,31l-17,30l-16,25l-17,25l-16,31l-1,2l-16,23l-16,29l-17,23l-16,26l-17,27l-10,20l-6,15l-17,37l-16,41l-17,37l-8,18l-8,79l-9,69l9,148l16,138l1,9l16,114l4,34l12,102l7,46l10,63l12,85l4,28l17,106l2,14l14,69l17,74l1,5l8,74l458,0l-5,-37l-4,-37l-12,-63l-17,-85l-16,-127l-3,-21l-14,-105l-6,-43l-10,-69l-13,-79l-4,-27l-11,-121l-5,-65l-7,-82l-5,-148l10,-148l2,-4l16,-47l17,-35l16,-39l10,-23l7,-9l16,-22l17,-23l16,-23l17,-23l16,-31l9,-17l8,-18l16,-26l17,-25l17,-31l16,-34l6,-14l11,-27l16,-38l17,-37l16,-46l17,-63l16,-58l6,-27l11,-87l8,-61l3,-148l-11,-134l-1,-14l-16,-82l-14,-66l-2,-9l-17,-62l-16,-59l-5,-17l-12,-60l-16,-58l-8,-30l-9,-46l-16,-80l-6,-22l-11,-58l-17,-71l-4,-19l-12,-62l-15,-86l-2,-8l-16,-115l-4,-25l-8,-74Z" fill="#74a877" stroke-opacity="1.0"></path>
    <path fill-opacity="1.000" stroke-width="10" stroke="#8dbf71" d="M3083,100l-12,21l-16,27l-15,26l-2,3l-16,40l-17,36l-16,42l-11,27l-6,12l-17,48l-16,49l-15,39l-2,2l-16,35l-17,37l-16,39l-17,32l-1,3l-15,49l-17,41l-16,44l-6,14l-11,43l-16,55l-13,50l-4,40l-13,107l2,148l11,87l7,61l10,43l16,64l10,41l7,24l16,60l17,54l2,10l14,52l17,60l11,36l5,16l17,39l16,39l17,39l5,15l11,29l17,44l17,36l16,31l4,8l13,19l16,24l17,20l16,22l17,22l16,25l9,16l8,12l16,23l17,21l16,22l17,26l16,29l11,15l6,9l16,33l17,32l16,30l17,32l6,12l10,59l17,81l1,8l-1,11l-17,125l-1,11l-15,89l-10,59l-7,36l-16,85l-5,27l-12,56l-16,68l-6,24l-11,40l-16,64l-14,44l-3,9l-16,45l-17,39l-16,55l-17,34l-16,32l-5,8l564,0l2,-3l17,-20l16,-20l17,-16l10,-15l6,-13l17,-29l16,-28l17,-30l17,-35l6,-13l10,-22l17,-26l16,-24l17,-22l16,-15l17,-21l16,-18l17,-18l16,-19l17,-16l16,-15l17,-23l16,-23l17,-28l3,-6l13,-24l17,-34l16,-32l17,-13l16,-4l17,-2l16,-12l17,-6l16,-7l12,-14l5,-7l17,-7l16,0l17,0l16,-1l17,0l16,1l11,14l6,7l16,36l17,7l16,31l17,25l16,22l17,20l16,17l17,17l16,6l17,14l16,14l17,21l16,10l17,31l12,18l4,5l17,32l17,32l16,26l17,21l16,21l8,11l9,9l16,23l17,28l16,25l17,31l16,27l3,5l14,33l12,41l477,0l-8,-74l-2,-11l-17,-73l-13,-64l-3,-21l-17,-106l-3,-21l-13,-93l-9,-55l-8,-55l-11,-93l-5,-43l-14,-105l-3,-19l-15,-128l-1,-22l-8,-126l8,-60l10,-88l6,-15l17,-38l16,-40l17,-37l7,-18l9,-18l17,-27l16,-26l17,-24l16,-28l17,-25l16,-31l17,-25l16,-24l17,-31l16,-31l4,-6l13,-36l16,-48l17,-48l7,-16l10,-32l16,-49l17,-52l4,-15l12,-53l17,-74l4,-21l12,-127l3,-21l3,-148l-6,-52l-9,-96l-7,-40l-17,-73l-7,-34l-9,-31l-17,-50l-16,-51l-6,-16l-11,-30l-17,-56l-16,-59l-1,-3l-16,-61l-16,-57l-9,-30l-8,-35l-16,-61l-15,-52l-2,-6l-16,-68l-16,-74l-1,-11l-6,-63l-477,0l4,12l14,62l3,8l16,47l17,36l16,39l9,18l8,13l16,28l17,31l16,35l16,41l1,2l16,32l17,37l16,36l17,35l2,6l15,35l16,44l17,41l11,28l5,14l17,54l16,55l7,25l10,64l13,83l3,50l6,98l-6,127l-1,21l-15,117l-5,31l-12,51l-16,78l-5,19l-12,38l-16,46l-17,54l-4,10l-12,27l-17,35l-17,31l-16,36l-9,19l-8,12l-16,25l-17,23l-16,19l-17,18l-16,15l-17,19l-14,17l-2,2l-17,15l-16,21l-17,22l-16,18l-17,14l-16,14l-17,14l-16,10l-17,13l-8,5l-8,5l-17,11l-16,9l-17,9l-16,10l-17,12l-17,11l-16,10l-17,12l-16,6l-17,7l-16,4l-17,5l-16,4l-17,7l-16,7l-17,6l-16,9l-9,4l-8,6l-16,11l-17,9l-16,14l-17,12l-16,5l-17,3l-16,1l-17,2l-16,0l-17,0l-17,-3l-16,0l-17,-1l-16,-2l-17,0l-16,0l-17,-2l-16,-10l-17,-8l-16,-11l-17,-9l-16,-10l-17,-7l-16,-2l-17,-2l-16,-6l-17,-5l-16,-8l-17,-4l-16,-7l-17,-7l-16,-10l-17,-10l-16,-11l-17,-16l-17,-12l-16,-10l-17,-13l-16,-12l-17,-13l-16,-13l-17,-15l-16,-15l-17,-14l-16,-19l-17,-22l-16,-24l-17,-24l-1,-2l-15,-26l-17,-24l-16,-20l-17,-16l-16,-13l-17,-18l-16,-26l-3,-5l-14,-30l-16,-39l-17,-34l-16,-33l-7,-12l-10,-26l-17,-42l-16,-50l-13,-30l-4,-10l-16,-69l-17,-69l-16,-90l-10,-58l-7,-68l-7,-80l-3,-148l10,-110l4,-37l13,-61l16,-72l4,-15l13,-42l16,-44l17,-35l10,-27l6,-13l17,-31l17,-30l16,-28l17,-31l8,-15l8,-16l17,-29l16,-22l17,-19l16,-12l17,-21l16,-21l5,-8l12,-23l16,-34l17,-36l16,-36l11,-19l6,-9l16,-24l17,-23l14,-18Z" fill="#8dbf71" stroke-opacity="1.0"></path>
    <path fill-opacity="1.000" stroke-width="10" stroke="#e9cc77" d="M3645,100l-12,15l-17,23l-16,24l-8,12l-9,16l-16,36l-17,36l-16,34l-14,26l-3,5l-16,21l-17,21l-16,13l-17,18l-16,22l-17,29l-10,19l-6,13l-17,30l-16,28l-17,31l-17,30l-7,16l-9,24l-17,34l-16,45l-14,45l-3,10l-16,72l-14,66l-3,24l-11,123l3,148l8,91l6,57l11,65l15,83l1,5l17,69l16,69l2,5l15,34l16,50l17,42l9,22l8,15l16,33l17,34l16,39l12,27l5,8l16,26l17,18l16,13l17,15l16,20l17,25l13,23l3,4l17,25l16,23l17,22l16,19l17,14l16,15l17,15l14,11l2,2l17,13l16,12l17,13l16,10l17,12l17,16l16,11l17,9l16,10l17,8l16,7l17,4l16,8l17,5l16,6l17,2l16,2l17,7l16,10l17,10l16,10l17,8l16,10l17,2l16,0l17,0l16,3l17,1l16,0l17,2l17,0l16,0l17,-1l16,-1l17,-4l16,-4l17,-12l16,-14l17,-9l16,-12l13,-8l4,-2l16,-9l17,-6l16,-7l17,-7l16,-4l17,-5l16,-4l17,-7l16,-6l17,-12l16,-10l17,-11l17,-13l16,-9l17,-9l16,-9l17,-11l11,-7l5,-4l17,-12l16,-11l17,-13l16,-14l17,-14l16,-18l17,-22l16,-21l17,-16l3,-3l13,-15l17,-19l16,-15l17,-18l16,-19l17,-23l16,-25l9,-14l8,-16l16,-36l17,-31l17,-35l13,-30l3,-7l17,-53l16,-47l13,-41l4,-14l16,-78l13,-56l4,-23l16,-125l7,-148l-7,-115l-2,-33l-14,-90l-9,-57l-8,-28l-16,-55l-17,-55l-3,-10l-13,-31l-17,-41l-16,-43l-14,-33l-3,-9l-17,-34l-16,-37l-17,-37l-16,-31l-17,-45l-16,-34l-17,-31l-16,-28l-6,-10l-11,-22l-16,-39l-17,-36l-16,-47l-2,-4l-15,-68l-2,-6ZM4029,766l17,-7l16,-7l17,0l16,3l17,0l16,-6l17,-1l16,4l17,3l17,7l8,4l8,5l17,11l16,11l17,0l16,15l17,21l16,13l17,19l16,17l17,25l8,11l8,18l17,28l16,28l17,9l16,12l17,25l16,27l13,148l-13,45l-16,44l-17,32l-16,14l-17,13l-16,21l-17,22l-16,35l-17,26l-16,22l-17,22l-16,10l-17,26l-16,4l-17,0l-16,1l-17,9l-16,4l-17,5l-17,5l-16,-2l-17,-3l-16,-5l-17,0l-16,0l-17,-4l-16,-15l-17,-10l-16,-15l-6,-10l-11,-27l-16,-33l-17,-31l-16,-21l-17,-22l-16,0l-11,-14l-6,-10l-16,-53l-17,-32l-16,-53l-9,-148l9,-24l16,-55l17,-34l12,-34l4,-6l17,-16l16,-1l17,-12l16,-11l17,-28l16,-25l17,-27l16,-22ZM4167,2984l-6,7l-16,7l-17,7l-16,12l-17,1l-16,5l-17,13l-16,32l-17,33l-16,31l-17,29l-16,22l-17,23l-16,15l-17,16l-16,20l-17,17l-4,6l-12,14l-17,21l-16,15l-17,22l-16,24l-17,25l-12,27l-4,9l-17,35l-17,30l-16,28l-17,29l-8,17l-8,12l-17,16l-16,20l-17,20l-4,6l1109,0l-14,-47l-12,-27l-5,-9l-16,-28l-17,-30l-16,-25l-17,-28l-16,-23l-5,-5l-12,-16l-16,-21l-17,-21l-16,-26l-17,-32l-17,-32l-16,-24l-17,-31l-16,-10l-17,-21l-16,-14l-17,-14l-16,-5l-17,-17l-11,-12l-5,-7l-17,-20l-16,-22l-17,-25l-16,-31l-17,-7l-16,-36l-17,-22l-16,-1l-17,0l-16,1l-17,0l-16,0l-17,8Z" fill="#e9cc77" stroke-opacity="1.0"></path>
    <path fill-opacity="1.000" stroke-width="10" stroke="#c77560" d="M4025,766l-12,16l-17,27l-16,25l-17,28l-16,12l-17,11l-16,1l-17,17l-8,11l-8,22l-17,34l-16,54l-13,37l8,148l5,11l16,53l17,31l16,53l17,21l16,0l17,22l16,21l17,30l16,34l9,20l8,15l16,15l17,10l16,14l17,5l16,0l17,0l16,5l17,3l16,2l17,-5l17,-5l16,-5l17,-8l16,-1l17,0l16,-4l17,-25l16,-11l6,-5l11,-15l16,-22l17,-26l16,-35l17,-22l16,-21l17,-7l16,-13l17,-31l16,-44l17,-60l-12,-148l-5,-9l-16,-28l-17,-23l-16,-13l-17,-10l-16,-27l-17,-28l-4,-9l-12,-16l-17,-25l-16,-18l-17,-18l-16,-13l-17,-21l-16,-15l-17,0l-16,-11l-17,-11l-16,-7l-17,-7l-17,-4l-16,-3l-17,0l-16,7l-17,0l-16,-4l-17,0l-16,7l-17,7Z" fill="#c77560" stroke-opacity="1.0"></path>
    <path fill-opacity="1.000" stroke-width="10" stroke="#b05b5a" d="" fill="#b05b5a" stroke-opacity="1.0"></path>
    <path fill-opacity="1.000" stroke-width="10" stroke="#984b44" d="" fill="#984b44" stroke-opacity="1.0"></path>
    <path fill-opacity="0.125" stroke="none" d="" fill="#000"></path>
    <path fill-opacity="0.251" stroke="none" d="M6772,3650l0,-1081l-17,0l-16,1l-17,0l-16,1l-17,1l-16,1l-17,1l-16,1l-17,1l-16,1l-17,1l-17,2l-16,1l-17,2l-16,1l-17,2l-16,2l-17,2l-16,2l-17,2l-16,2l-17,2l-16,2l-17,2l-16,2l-17,3l-16,2l-17,3l-16,2l-17,3l-16,2l-17,3l-16,2l-17,3l-16,3l-17,3l-17,2l-16,3l-17,3l-16,3l-17,3l-16,3l-17,3l-16,3l-17,3l-16,3l-17,3l-16,3l-17,3l-16,3l-17,3l-16,3l-17,3l-16,3l-17,3l-16,-145l-17,3l-16,3l-17,3l-16,3l-17,3l-17,3l-16,3l-17,3l-16,3l-17,3l-16,3l-17,3l-16,3l-17,3l-16,3l-17,3l-16,3l-17,3l-16,3l-17,3l-16,3l-17,3l-16,3l-17,3l-16,3l-17,3l-16,3l-17,2l-17,3l-16,3l-17,3l-16,3l-17,3l-16,3l-17,3l-16,2l-17,3l-16,3l-17,3l-16,3l-17,3l-16,2l-17,3l-16,3l-17,3l-16,3l-17,3l-16,3l-17,2l-16,3l-17,3l-16,3l-17,3l-17,3l-16,3l-17,2l-16,3l-17,3l-16,3l-17,3l-16,3l-17,3l-16,3l-17,3l-16,3l-17,3l-16,3l-17,2l-16,3l-17,3l-16,3l-17,3l-16,3l-17,3l-16,3l-17,3l-16,3l-17,3l-17,3l-16,3l-17,3l-16,3l-17,4l-16,3l-17,3l-16,3l-17,3l-16,3l-17,3l-16,3l-17,3l-16,3l-17,3l-16,3l-17,3l-16,3l-17,3l-16,3l-17,2l-16,3l-17,3l-17,3l-16,3l-17,3l-16,2l-17,3l-16,3l-17,2l-16,3l-17,3l-16,2l-17,3l-16,2l-17,2l-16,3l-17,2l-16,2l-17,2l-16,2l-17,2l-16,2l-17,2l-16,2l-17,2l-16,1l-17,2l-17,2l-16,1l-17,1l-16,2l-17,1l-16,1l-17,1l-16,1l-17,0l-16,1l-17,1l-16,0l-17,0l-16,1l-17,0l-16,0l-17,0l-16,0l-17,0l-16,-1l-17,0l-16,-1l-17,0l-16,-1l-17,-1l-17,-1l-16,-1l-17,-1l-16,-1l-17,-2l-16,-1l-17,-1l-16,-2l-17,-2l-16,-2l-17,-2l-16,-2l-17,-2l-16,-2l-17,-2l-16,-2l-17,-3l-16,-2l-17,-3l-16,-3l-17,-2l-16,-3l-17,-3l-17,-3l-16,-3l-17,-3l-16,-3l-17,-4l-16,-3l-17,-3l-16,-4l-17,-3l-16,-4l-17,-3l-16,-4l-17,-4l-16,-3l-17,-4l-16,-4l-17,-4l-16,-4l-17,-4l-16,-4l-17,-4l-16,-4l-17,-4l-16,-4l-17,-4l-17,-4l-16,-5l-17,-4l-16,-4l-17,-5l-16,-4l-17,-4l-16,-5l-17,-4l-16,-5l-17,-4l-16,-4l-17,-5l-16,-4l-17,-5l-16,-4l-17,-5l-16,-4l-17,-5l-16,-4l-17,-5l-16,-5l-17,-4l-16,-5l-17,-4l-17,-5l-16,-4l-17,-5l-16,-4l-17,-5l-16,-4l-17,-5l-16,-4l-17,-5l-16,-4l-17,-4l-16,-5l-17,-4l-16,143l-17,-4l-16,-4l-17,-5l-16,-4l-17,-4l-16,-4l-17,-5l-16,-4l-17,-4l-17,-4l-16,-4l-17,-4l-16,-4l-17,-4l-16,-4l-17,-4l-16,-4l-17,-3l-16,-4l-17,-4l-16,-4l-17,-3l-16,-4l-17,-3l-16,-4l-17,-3l-16,-3l-17,-4l-16,-3l-17,-3l-16,-3l-17,-3l-16,-3l-17,-3l-17,-3l-16,-3l-17,-2l-16,-3l-17,-3l-16,-2l-17,-3l-16,-2l-17,-2l-16,-2l-17,-2l-16,-2l-17,-2l-16,-2l-17,-2l-16,-2l-17,-1l-16,-2l-17,-1l-16,-1l-17,-2l-16,-1l-17,-1l-16,-1l-17,0l-17,-1l-16,-1l-17,0l-16,-1l-17,0l-16,-1l-17,0l-16,0l-17,0l-16,0l-17,0l0,1082Z" fill="#000"></path>
    <path fill-opacity="0.125" stroke="none" d="M758,2568l17,0l16,0l17,0l16,0l17,0l16,1l17,0l16,1l17,0l16,1l17,1l17,0l16,1l17,1l16,1l17,2l16,1l17,1l16,2l17,1l16,2l17,2l16,2l17,2l16,2l17,2l16,2l17,2l16,2l17,3l16,2l17,3l16,3l17,2l16,3l17,3l17,3l16,3l17,3l16,3l17,3l16,3l17,4l16,3l17,3l16,4l17,3l16,4l17,3l16,4l17,4l16,4l17,3l16,4l17,4l16,4l17,4l16,4l17,4l16,4l17,4l17,4l16,4l17,5l16,4l17,4l16,4l17,5l16,4l17,4l16,-143l17,4l16,5l17,4l16,4l17,5l16,4l17,5l16,4l17,5l16,4l17,5l16,4l17,5l17,4l16,5l17,4l16,5l17,5l16,4l17,5l16,4l17,5l16,4l17,5l16,4l17,5l16,4l17,4l16,5l17,4l16,5l17,4l16,4l17,5l16,4l17,4l16,5l17,4l17,4l16,4l17,4l16,4l17,4l16,4l17,4l16,4l17,4l16,4l17,4l16,3l17,4l16,4l17,3l16,4l17,3l16,4l17,3l16,3l17,4l16,3l17,3l16,3l17,3l17,3l16,3l17,2l16,3l17,3l16,2l17,3l16,2l17,2l16,2l17,2l16,2l17,2l16,2l17,2l16,2l17,1l16,1l17,2l16,1l17,1l16,1l17,1l17,1l16,1l17,0l16,1l17,0l16,1l17,0l16,0l17,0l16,0l17,0l16,-1l17,0l16,0l17,-1l16,-1l17,0l16,-1l17,-1l16,-1l17,-1l16,-2l17,-1l16,-1l17,-2l17,-2l16,-1l17,-2l16,-2l17,-2l16,-2l17,-2l16,-2l17,-2l16,-2l17,-2l16,-3l17,-2l16,-2l17,-3l16,-2l17,-3l16,-3l17,-2l16,-3l17,-3l16,-2l17,-3l16,-3l17,-3l17,-3l16,-3l17,-2l16,-3l17,-3l16,-3l17,-3l16,-3l17,-3l16,-3l17,-3l16,-3l17,-3l16,-3l17,-3l16,-3l17,-3l16,-3l17,-4l16,-3l17,-3l16,-3l17,-3l17,-3l16,-3l17,-3l16,-3l17,-3l16,-3l17,-3l16,-3l17,-3l16,-3l17,-2l16,-3l17,-3l16,-3l17,-3l16,-3l17,-3l16,-3l17,-3l16,-3l17,-3l16,-3l17,-2l16,-3l17,-3l17,-3l16,-3l17,-3l16,-3l17,-2l16,-3l17,-3l16,-3l17,-3l16,-3l17,-3l16,-2l17,-3l16,-3l17,-3l16,-3l17,-3l16,-2l17,-3l16,-3l17,-3l16,-3l17,-3l16,-3l17,-3l17,-2l16,-3l17,-3l16,-3l17,-3l16,-3l17,-3l16,-3l17,-3l16,-3l17,-3l16,-3l17,-3l16,-3l17,-3l16,-3l17,-3l16,-3l17,-3l16,-3l17,-3l16,-3l17,-3l17,-3l16,-3l17,-3l16,-3l17,-3l16,145l17,-3l16,-3l17,-3l16,-3l17,-3l16,-3l17,-3l16,-3l17,-3l16,-3l17,-3l16,-3l17,-3l16,-3l17,-3l16,-3l17,-3l16,-3l17,-2l17,-3l16,-3l17,-3l16,-2l17,-3l16,-2l17,-3l16,-2l17,-3l16,-2l17,-3l16,-2l17,-2l16,-2l17,-2l16,-2l17,-2l16,-2l17,-2l16,-2l17,-2l16,-1l17,-2l16,-1l17,-2l17,-1l16,-1l17,-1l16,-1l17,-1l16,-1l17,-1l16,-1l17,0l16,-1l17,0l0,-81l-17,0l-16,1l-17,0l-16,1l-17,1l-16,1l-17,1l-16,1l-17,1l-16,1l-17,1l-17,2l-16,1l-17,2l-16,1l-17,2l-16,2l-17,2l-16,2l-17,2l-16,2l-17,2l-16,2l-17,3l-16,2l-17,3l-16,2l-17,3l-16,2l-17,3l-16,3l-17,3l-16,2l-17,3l-16,3l-17,3l-17,3l-16,3l-17,3l-16,3l-17,3l-16,4l-17,3l-16,3l-17,3l-16,3l-17,3l-16,4l-17,3l-16,3l-17,3l-16,3l-17,4l-16,3l-17,3l-16,-145l-17,4l-16,3l-17,3l-16,3l-17,4l-17,3l-16,3l-17,3l-16,3l-17,4l-16,3l-17,3l-16,3l-17,3l-16,3l-17,3l-16,3l-17,4l-16,3l-17,3l-16,3l-17,3l-16,3l-17,3l-16,3l-17,3l-16,3l-17,3l-17,3l-16,2l-17,3l-16,3l-17,3l-16,3l-17,3l-16,3l-17,3l-16,3l-17,2l-16,3l-17,3l-16,3l-17,3l-16,2l-17,3l-16,3l-17,3l-16,3l-17,2l-16,3l-17,3l-16,3l-17,2l-17,3l-16,3l-17,3l-16,3l-17,2l-16,3l-17,3l-16,3l-17,2l-16,3l-17,3l-16,3l-17,2l-16,3l-17,3l-16,3l-17,2l-16,3l-17,3l-16,3l-17,3l-16,2l-17,3l-16,3l-17,3l-17,2l-16,3l-17,3l-16,3l-17,3l-16,2l-17,3l-16,3l-17,3l-16,2l-17,3l-16,3l-17,3l-16,2l-17,3l-16,3l-17,2l-16,3l-17,3l-16,2l-17,3l-16,2l-17,3l-17,3l-16,2l-17,3l-16,2l-17,2l-16,3l-17,2l-16,3l-17,2l-16,2l-17,2l-16,2l-17,3l-16,2l-17,2l-16,2l-17,2l-16,1l-17,2l-16,2l-17,2l-16,1l-17,2l-16,1l-17,2l-17,1l-16,2l-17,1l-16,1l-17,1l-16,1l-17,1l-16,1l-17,0l-16,1l-17,1l-16,0l-17,1l-16,0l-17,0l-16,0l-17,0l-16,0l-17,0l-16,0l-17,0l-16,-1l-17,0l-16,-1l-17,0l-17,-1l-16,-1l-17,-1l-16,-1l-17,-1l-16,-1l-17,-2l-16,-1l-17,-2l-16,-1l-17,-2l-16,-1l-17,-2l-16,-2l-17,-2l-16,-2l-17,-2l-16,-3l-17,-2l-16,-2l-17,-3l-16,-2l-17,-3l-17,-2l-16,-3l-17,-3l-16,-3l-17,-3l-16,-3l-17,-3l-16,-3l-17,-3l-16,-3l-17,-4l-16,-3l-17,-3l-16,-4l-17,-3l-16,-4l-17,-4l-16,-3l-17,-4l-16,-4l-17,-3l-16,-4l-17,-4l-16,-4l-17,-4l-17,-4l-16,-4l-17,-4l-16,-4l-17,-4l-16,-4l-17,-5l-16,-4l-17,-4l-16,-4l-17,-5l-16,-4l-17,-4l-16,-4l-17,-5l-16,-4l-17,-5l-16,-4l-17,-4l-16,-5l-17,-4l-16,-5l-17,-4l-16,-5l-17,-4l-17,-4l-16,-5l-17,-4l-16,-5l-17,-4l-16,-5l-17,-4l-16,-5l-17,-4l-16,-4l-17,-5l-16,-4l-17,-5l-16,144l-17,-4l-16,-5l-17,-4l-16,-4l-17,-5l-16,-4l-17,-4l-16,-5l-17,-4l-17,-4l-16,-4l-17,-4l-16,-4l-17,-4l-16,-4l-17,-4l-16,-4l-17,-4l-16,-4l-17,-4l-16,-4l-17,-3l-16,-4l-17,-4l-16,-3l-17,-4l-16,-3l-17,-4l-16,-3l-17,-4l-16,-3l-17,-3l-16,-3l-17,-3l-17,-3l-16,-3l-17,-3l-16,-3l-17,-3l-16,-2l-17,-3l-16,-3l-17,-2l-16,-2l-17,-3l-16,-2l-17,-2l-16,-2l-17,-2l-16,-2l-17,-2l-16,-1l-17,-2l-16,-1l-17,-2l-16,-1l-17,-1l-16,-2l-17,-1l-17,0l-16,-1l-17,-1l-16,-1l-17,0l-16,-1l-17,0l-16,0l-17,0l-16,0l-17,0Z" fill="#000"></path>
    <path fill-opacity="0.125" stroke="none" d="M758,1157l17,-3l16,-2l17,-2l16,-3l17,-2l16,-3l17,-3l16,-2l17,-3l16,-3l17,-3l17,-3l16,-2l17,-3l16,-3l17,-4l16,-3l17,-3l16,-3l17,-3l16,-3l17,-4l16,-3l17,-3l16,-3l17,-4l16,-3l17,-3l16,-4l17,-3l16,-4l17,-3l16,-3l17,-4l16,-3l17,-3l17,-4l16,-3l17,-4l16,-3l17,-3l16,-4l17,-3l16,-3l17,-4l16,-3l17,-3l16,-4l17,-3l16,-3l17,-3l16,-4l17,-3l16,-3l17,-3l16,-4l17,-3l16,-3l17,-3l16,-3l17,-4l17,-3l16,-3l17,-3l16,-3l17,-3l16,-3l17,-3l16,-3l17,-4l16,-150l17,-4l16,-3l17,-3l16,-3l17,-3l16,-3l17,-3l16,-3l17,-3l16,-3l17,-3l16,-3l17,-2l17,-3l16,-3l17,-3l16,-3l17,-3l16,-3l17,-3l16,-3l17,-3l16,-3l17,-3l16,-3l17,-3l16,-3l17,-3l16,-3l17,-3l16,-3l17,-3l16,-3l17,-2l16,-3l17,-3l16,-3l17,-3l17,-3l16,-3l17,-3l16,-3l17,-3l16,-3l17,-3l16,-3l17,-3l16,-3l17,-2l16,-3l17,-3l16,-3l17,-3l16,-3l17,-3l16,-3l17,-2l16,-3l17,-3l16,-3l17,-2l16,-3l17,-3l17,-2l16,-3l17,-3l16,-2l17,-3l16,-2l17,-3l16,-2l17,-3l16,-2l17,-2l16,-3l17,-2l16,-2l17,-2l16,-2l17,-2l16,-2l17,-2l16,-2l17,-2l16,-1l17,-2l17,-1l16,-2l17,-1l16,-2l17,-1l16,-1l17,-1l16,-1l17,-1l16,-1l17,-1l16,-1l17,0l16,-1l17,0l16,-1l17,0l16,0l17,0l16,0l17,0l16,0l17,1l16,0l17,1l17,0l16,1l17,1l16,0l17,1l16,1l17,1l16,2l17,1l16,1l17,2l16,1l17,2l16,2l17,2l16,2l17,2l16,2l17,2l16,2l17,2l16,3l17,2l16,3l17,2l17,3l16,3l17,3l16,3l17,3l16,3l17,3l16,3l17,3l16,3l17,4l16,3l17,3l16,4l17,4l16,3l17,4l16,3l17,4l16,4l17,4l16,4l17,4l17,4l16,4l17,4l16,4l17,4l16,4l17,4l16,4l17,5l16,4l17,4l16,4l17,5l16,4l17,4l16,5l17,4l16,5l17,4l16,5l17,4l16,4l17,5l16,4l17,5l17,4l16,5l17,5l16,4l17,5l16,4l17,5l16,4l17,5l16,4l17,5l16,4l17,5l16,4l17,5l16,4l17,5l16,4l17,5l16,4l17,4l16,5l17,4l16,5l17,4l17,4l16,4l17,5l16,4l17,4l16,4l17,4l16,4l17,5l16,4l17,4l16,3l17,4l16,4l17,4l16,4l17,3l16,4l17,4l16,3l17,4l16,3l17,4l17,3l16,3l17,4l16,3l17,3l16,151l17,3l16,3l17,2l16,3l17,3l16,2l17,3l16,2l17,3l16,2l17,2l16,2l17,2l16,2l17,2l16,2l17,1l16,2l17,1l17,2l16,1l17,1l16,1l17,1l16,1l17,1l16,1l17,0l16,1l17,0l16,0l17,0l16,1l17,-1l16,0l17,0l16,0l17,-1l16,0l17,-1l16,-1l17,-1l16,-1l17,-1l17,-1l16,-1l17,-2l16,-1l17,-2l16,-1l17,-2l16,-2l17,-2l16,-2l17,-2l0,-80l-17,2l-16,1l-17,2l-16,2l-17,2l-16,1l-17,2l-16,1l-17,2l-16,1l-17,1l-17,1l-16,1l-17,1l-16,1l-17,1l-16,0l-17,1l-16,0l-17,1l-16,0l-17,0l-16,0l-17,0l-16,0l-17,0l-16,-1l-17,0l-16,-1l-17,0l-16,-1l-17,-1l-16,-1l-17,-1l-16,-1l-17,-1l-17,-1l-16,-2l-17,-1l-16,-2l-17,-1l-16,-2l-17,-2l-16,-2l-17,-2l-16,-2l-17,-2l-16,-2l-17,-2l-16,-3l-17,-2l-16,-3l-17,-2l-16,-3l-17,-3l-16,-151l-17,-3l-16,-3l-17,-3l-16,-3l-17,-3l-17,-3l-16,-3l-17,-4l-16,-3l-17,-4l-16,-3l-17,-4l-16,-3l-17,-4l-16,-4l-17,-3l-16,-4l-17,-4l-16,-4l-17,-4l-16,-4l-17,-4l-16,-4l-17,-4l-16,-4l-17,-4l-16,-5l-17,-4l-17,-4l-16,-4l-17,-5l-16,-4l-17,-4l-16,-5l-17,-4l-16,-5l-17,-4l-16,-5l-17,-4l-16,-5l-17,-4l-16,-5l-17,-4l-16,-5l-17,-4l-16,-5l-17,-5l-16,-4l-17,-5l-16,-4l-17,-5l-16,-5l-17,-4l-17,-5l-16,-4l-17,-5l-16,-5l-17,-4l-16,-5l-17,-4l-16,-5l-17,-4l-16,-5l-17,-5l-16,-4l-17,-5l-16,-4l-17,-4l-16,-5l-17,-4l-16,-5l-17,-4l-16,-4l-17,-5l-16,-4l-17,-4l-16,-5l-17,-4l-17,-4l-16,-4l-17,-4l-16,-4l-17,-4l-16,-4l-17,-4l-16,-4l-17,-4l-16,-4l-17,-3l-16,-4l-17,-4l-16,-3l-17,-4l-16,-3l-17,-3l-16,-4l-17,-3l-16,-3l-17,-3l-16,-3l-17,-3l-17,-3l-16,-3l-17,-3l-16,-3l-17,-2l-16,-3l-17,-2l-16,-3l-17,-2l-16,-2l-17,-2l-16,-2l-17,-2l-16,-2l-17,-2l-16,-1l-17,-2l-16,-1l-17,-2l-16,-1l-17,-1l-16,-1l-17,-1l-16,-1l-17,-1l-17,0l-16,-1l-17,0l-16,0l-17,-1l-16,0l-17,0l-16,0l-17,1l-16,0l-17,0l-16,1l-17,0l-16,1l-17,1l-16,1l-17,1l-16,1l-17,1l-16,2l-17,1l-16,1l-17,2l-16,2l-17,1l-17,2l-16,2l-17,2l-16,2l-17,2l-16,2l-17,2l-16,3l-17,2l-16,2l-17,3l-16,3l-17,2l-16,3l-17,2l-16,3l-17,3l-16,3l-17,2l-16,3l-17,3l-16,3l-17,3l-17,3l-16,3l-17,3l-16,3l-17,3l-16,3l-17,4l-16,3l-17,3l-16,3l-17,3l-16,3l-17,3l-16,4l-17,3l-16,3l-17,3l-16,3l-17,4l-16,3l-17,3l-16,3l-17,3l-16,4l-17,3l-17,3l-16,3l-17,3l-16,3l-17,4l-16,3l-17,3l-16,3l-17,3l-16,3l-17,3l-16,3l-17,4l-16,3l-17,3l-16,3l-17,3l-16,3l-17,3l-16,3l-17,3l-16,3l-17,3l-16,3l-17,3l-17,4l-16,3l-17,3l-16,3l-17,3l-16,3l-17,3l-16,3l-17,3l-16,3l-17,3l-16,3l-17,3l-16,151l-17,3l-16,3l-17,3l-16,3l-17,3l-16,3l-17,3l-16,3l-17,3l-17,4l-16,3l-17,3l-16,3l-17,3l-16,3l-17,3l-16,3l-17,4l-16,3l-17,3l-16,3l-17,3l-16,3l-17,3l-16,4l-17,3l-16,3l-17,3l-16,3l-17,4l-16,3l-17,3l-16,3l-17,3l-17,3l-16,4l-17,3l-16,3l-17,3l-16,3l-17,4l-16,3l-17,3l-16,3l-17,3l-16,3l-17,3l-16,3l-17,3l-16,3l-17,3l-16,3l-17,3l-16,3l-17,3l-16,3l-17,3l-16,3l-17,2l-17,3l-16,3l-17,2l-16,3l-17,2l-16,3l-17,2l-16,2l-17,3l-16,2l-17,2Z" fill="#000"></path>
    <path fill-opacity="0.251" stroke="none" d="M758,1076l17,-2l16,-2l17,-3l16,-2l17,-2l16,-3l17,-2l16,-3l17,-2l16,-3l17,-3l17,-2l16,-3l17,-3l16,-3l17,-3l16,-3l17,-3l16,-3l17,-3l16,-3l17,-3l16,-3l17,-3l16,-3l17,-3l16,-3l17,-3l16,-3l17,-4l16,-3l17,-3l16,-3l17,-3l16,-4l17,-3l17,-3l16,-3l17,-3l16,-3l17,-4l16,-3l17,-3l16,-3l17,-3l16,-4l17,-3l16,-3l17,-3l16,-3l17,-3l16,-3l17,-4l16,-3l17,-3l16,-3l17,-3l16,-3l17,-3l16,-3l17,-4l17,-3l16,-3l17,-3l16,-3l17,-3l16,-3l17,-3l16,-3l17,-3l16,-151l17,-3l16,-3l17,-3l16,-3l17,-3l16,-3l17,-3l16,-3l17,-3l16,-3l17,-3l16,-3l17,-4l17,-3l16,-3l17,-3l16,-3l17,-3l16,-3l17,-3l16,-3l17,-3l16,-3l17,-3l16,-3l17,-4l16,-3l17,-3l16,-3l17,-3l16,-3l17,-3l16,-3l17,-4l16,-3l17,-3l16,-3l17,-3l17,-3l16,-4l17,-3l16,-3l17,-3l16,-3l17,-4l16,-3l17,-3l16,-3l17,-3l16,-4l17,-3l16,-3l17,-3l16,-3l17,-3l16,-3l17,-4l16,-3l17,-3l16,-3l17,-3l16,-3l17,-3l17,-3l16,-3l17,-3l16,-3l17,-2l16,-3l17,-3l16,-3l17,-2l16,-3l17,-2l16,-3l17,-3l16,-2l17,-2l16,-3l17,-2l16,-2l17,-2l16,-2l17,-2l16,-2l17,-2l17,-1l16,-2l17,-2l16,-1l17,-1l16,-2l17,-1l16,-1l17,-1l16,-1l17,-1l16,-1l17,0l16,-1l17,0l16,0l17,-1l16,0l17,0l16,0l17,1l16,0l17,0l16,1l17,0l17,1l16,1l17,1l16,1l17,1l16,1l17,2l16,1l17,2l16,1l17,2l16,2l17,2l16,2l17,2l16,2l17,2l16,3l17,2l16,3l17,2l16,3l17,3l16,3l17,3l17,3l16,3l17,3l16,3l17,3l16,4l17,3l16,3l17,4l16,3l17,4l16,4l17,3l16,4l17,4l16,4l17,4l16,4l17,4l16,4l17,4l16,4l17,4l17,4l16,5l17,4l16,4l17,5l16,4l17,4l16,5l17,4l16,5l17,4l16,4l17,5l16,4l17,5l16,5l17,4l16,5l17,4l16,5l17,4l16,5l17,5l16,4l17,5l17,4l16,5l17,5l16,4l17,5l16,4l17,5l16,5l17,4l16,5l17,4l16,5l17,4l16,5l17,4l16,5l17,4l16,5l17,4l16,5l17,4l16,4l17,5l16,4l17,4l17,4l16,5l17,4l16,4l17,4l16,4l17,4l16,4l17,4l16,4l17,4l16,4l17,3l16,4l17,4l16,3l17,4l16,3l17,4l16,3l17,4l16,3l17,3l17,3l16,3l17,3l16,3l17,3l16,151l17,3l16,3l17,2l16,3l17,2l16,3l17,2l16,2l17,2l16,2l17,2l16,2l17,2l16,2l17,1l16,2l17,1l16,2l17,1l17,1l16,1l17,1l16,1l17,1l16,1l17,0l16,1l17,0l16,1l17,0l16,0l17,0l16,0l17,0l16,0l17,-1l16,0l17,-1l16,0l17,-1l16,-1l17,-1l16,-1l17,-1l17,-1l16,-1l17,-2l16,-1l17,-2l16,-1l17,-2l16,-2l17,-2l16,-1l17,-2l0,-979l-6014,0Z" fill="#000"></path>
    <path fill-opacity="0.125" stroke="none" d="" fill="#000"></path>
  </g>
  <g transform="scale(0.1)">
    <line stroke-width="10" stroke="#f00" x2="3435.6" y1="100" x1="3435.6" class="now" fill="none" y2="3650" stroke-opacity="0.5019607843137255"></line>
  </g>
  <g stroke-width="1" stroke="#000" pointer-events="none" class="pointer_events_none" fill="none" stroke-opacity="0.2">
    <line x2="126.2" pointer-events="none" y1="10" x1="126.2" class="pointer_events_none" y2="370" stroke-opacity="0.2"></line>
    <line x2="172.5" pointer-events="none" y1="10" x1="172.5" class="pointer_events_none" y2="370" stroke-opacity="0.2"></line>
    <line x2="223.7" pointer-events="none" y1="10" x1="223.7" class="pointer_events_none" y2="370" stroke-opacity="0.2"></line>
    <line x2="273.2" pointer-events="none" y1="10" x1="273.2" class="pointer_events_none" y2="370" stroke-opacity="0.2"></line>
    <line x2="324.5" pointer-events="none" y1="10" x1="324.5" class="pointer_events_none" y2="370" stroke-opacity="0.2"></line>
    <line x2="374" pointer-events="none" y1="10" x1="374" class="pointer_events_none" y2="370" stroke-opacity="0.2"></line>
    <line x2="425.2" pointer-events="none" y1="10" x1="425.2" class="pointer_events_none" y2="370" stroke-opacity="0.2"></line>
    <line x2="476.4" pointer-events="none" y1="10" x1="476.4" class="pointer_events_none" y2="370" stroke-opacity="0.2"></line>
    <line x2="526" pointer-events="none" y1="10" x1="526" class="pointer_events_none" y2="370" stroke-opacity="0.2"></line>
    <line x2="577.2" pointer-events="none" y1="10" x1="577.2" class="pointer_events_none" y2="370" stroke-opacity="0.2"></line>
    <line x2="626.8" pointer-events="none" y1="10" x1="626.8" class="pointer_events_none" y2="370" stroke-opacity="0.2"></line>
    <line x2="681" pointer-events="none" y1="365" x1="72" y2="365"></line>
    <line x2="681" pointer-events="none" y1="335.4" x1="72" y2="335.4"></line>
    <line x2="681" pointer-events="none" y1="305.8" x1="72" y2="305.8"></line>
    <line x2="681" pointer-events="none" y1="276.3" x1="72" y2="276.3"></line>
    <line x2="681" pointer-events="none" y1="246.7" x1="72" y2="246.7"></line>
    <line x2="681" pointer-events="none" y1="217.1" x1="72" y2="217.1"></line>
    <line x2="681" pointer-events="none" y1="187.5" x1="72" y2="187.5"></line>
    <line x2="681" pointer-events="none" y1="157.9" x1="72" y2="157.9"></line>
    <line x2="681" pointer-events="none" y1="128.3" x1="72" y2="128.3"></line>
    <line x2="681" pointer-events="none" y1="98.8" x1="72" y2="98.8"></line>
    <line x2="681" pointer-events="none" y1="69.2" x1="72" y2="69.2"></line>
    <line x2="681" pointer-events="none" y1="39.6" x1="72" y2="39.6"></line>
    <line x2="681" pointer-events="none" y1="10" x1="72" y2="10"></line>
  </g>
  <a xlink:href="/s/19863/3/Average-Winter-Weather-in-Toronto-Canada#Figures-ColorTemperature" class="Figure-HorizontalAxis-group">
    <rect fill-opacity="0.004" y="10" x="75" height="355" class="Figure-hoverRect" width="51.2" fill="#fff"></rect>
    <text stroke="none" y="381.5" text-anchor="middle" x="100.6" class="Figure-HorizontalAxis-label">Jan</text>
  </a>
  <a xlink:href="/s/19863/3/Average-Winter-Weather-in-Toronto-Canada#Figures-ColorTemperature" class="Figure-HorizontalAxis-group">
    <rect fill-opacity="0.004" y="10" x="126.2" height="355" class="Figure-hoverRect" width="46.3" fill="#fff"></rect>
    <text stroke="none" y="381.5" text-anchor="middle" x="149.3" class="Figure-HorizontalAxis-label">Feb</text>
  </a>
  <a xlink:href="/s/19863/0/Average-Spring-Weather-in-Toronto-Canada#Figures-ColorTemperature" class="Figure-HorizontalAxis-group">
    <rect fill-opacity="0.004" y="10" x="172.5" height="355" class="Figure-hoverRect" width="51.2" fill="#fff"></rect>
    <text stroke="none" y="381.5" text-anchor="middle" x="198.1" class="Figure-HorizontalAxis-label">Mar</text>
  </a>
  <a xlink:href="/s/19863/0/Average-Spring-Weather-in-Toronto-Canada#Figures-ColorTemperature" class="Figure-HorizontalAxis-group">
    <rect fill-opacity="0.004" y="10" x="223.7" height="355" class="Figure-hoverRect" width="49.6" fill="#fff"></rect>
    <text stroke="none" y="381.5" text-anchor="middle" x="248.5" class="Figure-HorizontalAxis-label">Apr</text>
  </a>
  <a xlink:href="/s/19863/0/Average-Spring-Weather-in-Toronto-Canada#Figures-ColorTemperature" class="Figure-HorizontalAxis-group">
    <rect fill-opacity="0.004" y="10" x="273.2" height="355" class="Figure-hoverRect" width="51.2" fill="#fff"></rect>
    <text stroke="none" y="381.5" text-anchor="middle" x="298.9" class="Figure-HorizontalAxis-label">May</text>
  </a>
  <a xlink:href="/s/19863/1/Average-Summer-Weather-in-Toronto-Canada#Figures-ColorTemperature" class="Figure-HorizontalAxis-group">
    <rect fill-opacity="0.004" y="10" x="324.5" height="355" class="Figure-hoverRect" width="49.6" fill="#fff"></rect>
    <text stroke="none" y="381.5" text-anchor="middle" x="349.2" class="Figure-HorizontalAxis-label">Jun</text>
  </a>
  <a xlink:href="/s/19863/1/Average-Summer-Weather-in-Toronto-Canada#Figures-ColorTemperature" class="Figure-HorizontalAxis-group">
    <rect fill-opacity="0.004" y="10" x="374" height="355" class="Figure-hoverRect" width="51.2" fill="#fff"></rect>
    <text stroke="none" y="381.5" text-anchor="middle" x="399.6" class="Figure-HorizontalAxis-label">Jul</text>
  </a>
  <a xlink:href="/s/19863/1/Average-Summer-Weather-in-Toronto-Canada#Figures-ColorTemperature" class="Figure-HorizontalAxis-group">
    <rect fill-opacity="0.004" y="10" x="425.2" height="355" class="Figure-hoverRect" width="51.2" fill="#fff"></rect>
    <text stroke="none" y="381.5" text-anchor="middle" x="450.8" class="Figure-HorizontalAxis-label">Aug</text>
  </a>
  <a xlink:href="/s/19863/2/Average-Fall-Weather-in-Toronto-Canada#Figures-ColorTemperature" class="Figure-HorizontalAxis-group">
    <rect fill-opacity="0.004" y="10" x="476.4" height="355" class="Figure-hoverRect" width="49.6" fill="#fff"></rect>
    <text stroke="none" y="381.5" text-anchor="middle" x="501.2" class="Figure-HorizontalAxis-label">Sep</text>
  </a>
  <a xlink:href="/s/19863/2/Average-Fall-Weather-in-Toronto-Canada#Figures-ColorTemperature" class="Figure-HorizontalAxis-group">
    <rect fill-opacity="0.004" y="10" x="526" height="355" class="Figure-hoverRect" width="51.2" fill="#fff"></rect>
    <text stroke="none" y="381.5" text-anchor="middle" x="551.6" class="Figure-HorizontalAxis-label">Oct</text>
  </a>
  <a xlink:href="/s/19863/2/Average-Fall-Weather-in-Toronto-Canada#Figures-ColorTemperature" class="Figure-HorizontalAxis-group">
    <rect fill-opacity="0.004" y="10" x="577.2" height="355" class="Figure-hoverRect" width="49.6" fill="#fff"></rect>
    <text stroke="none" y="381.5" text-anchor="middle" x="602" class="Figure-HorizontalAxis-label">Nov</text>
  </a>
  <a xlink:href="/s/19863/3/Average-Winter-Weather-in-Toronto-Canada#Figures-ColorTemperature" class="Figure-HorizontalAxis-group">
    <rect fill-opacity="0.004" y="10" x="626.8" height="355" class="Figure-hoverRect" width="51.2" fill="#fff"></rect>
    <text stroke="none" y="381.5" text-anchor="middle" x="652.4" class="Figure-HorizontalAxis-label">Dec</text>
  </a>
  <g stroke="none" fill="#000">
    <text y="370.2" text-anchor="end" x="71">12 a.m.</text>
    <text y="370.2" x="682">12 a.m.</text>
    <text y="340.6" text-anchor="end" x="71">2 a.m.</text>
    <text y="340.6" x="682">2 a.m.</text>
    <text y="311" text-anchor="end" x="71">4 a.m.</text>
    <text y="311" x="682">4 a.m.</text>
    <text y="281.4" text-anchor="end" x="71">6 a.m.</text>
    <text y="281.4" x="682">6 a.m.</text>
    <text y="251.9" text-anchor="end" x="71">8 a.m.</text>
    <text y="251.9" x="682">8 a.m.</text>
    <text y="222.3" text-anchor="end" x="71">10 a.m.</text>
    <text y="222.3" x="682">10 a.m.</text>
    <text y="192.7" text-anchor="end" x="71">12 p.m.</text>
    <text y="192.7" x="682">12 p.m.</text>
    <text y="163.1" text-anchor="end" x="71">2 p.m.</text>
    <text y="163.1" x="682">2 p.m.</text>
    <text y="133.5" text-anchor="end" x="71">4 p.m.</text>
    <text y="133.5" x="682">4 p.m.</text>
    <text y="103.9" text-anchor="end" x="71">6 p.m.</text>
    <text y="103.9" x="682">6 p.m.</text>
    <text y="74.4" text-anchor="end" x="71">8 p.m.</text>
    <text y="74.4" x="682">8 p.m.</text>
    <text y="44.8" text-anchor="end" x="71">10 p.m.</text>
    <text y="44.8" x="682">10 p.m.</text>
    <text y="15.2" text-anchor="end" x="71">12 a.m.</text>
    <text y="15.2" x="682">12 a.m.</text>
  </g>
  <g font-family="sans-serif" pointer-events="none" text-decoration="none" class="now" font-style="normal" font-size="15" font-weight="normal">
    <g font-family="sans-serif" stroke="none" opacity="0.5" text-decoration="none" font-style="normal" font-size="15" fill="#f00" font-weight="normal">
      <g opacity="0.4">
        <text stroke-width="4" stroke="#fff" y="357.5" x="347.6" stroke-linejoin="bevel" fill="#fff">Now</text>
      </g>
      <text y="357.5" x="347.6">Now</text>
    </g>
  </g>
  <g font-family="sans-serif" pointer-events="none" text-decoration="none" font-style="normal" font-size="15" font-weight="normal">
    <text font-family="sans-serif" stroke="none" opacity="0.8" y="261.9" text-decoration="none" text-anchor="middle" x="145" font-style="normal" font-size="15" fill="#fff" font-weight="normal">freezing</text>
  </g>
  <g font-family="sans-serif" pointer-events="none" text-decoration="none" font-style="normal" font-size="15" font-weight="normal">
    <text font-family="sans-serif" stroke="none" opacity="0.8" y="272.6" text-decoration="none" text-anchor="middle" x="248.3" font-style="normal" font-size="15" fill="#fff" font-weight="normal">very cold</text>
  </g>
  <g font-family="sans-serif" pointer-events="none" text-decoration="none" font-style="normal" font-size="15" font-weight="normal">
    <text font-family="sans-serif" stroke="none" opacity="0.8" y="304.5" text-decoration="none" text-anchor="middle" x="595.2" font-style="normal" font-size="15" fill="#fff" font-weight="normal">very cold</text>
  </g>
  <g font-family="sans-serif" pointer-events="none" text-decoration="none" font-style="normal" font-size="15" font-weight="normal">
    <text font-family="sans-serif" stroke="none" opacity="0.8" y="279.7" text-decoration="none" text-anchor="middle" x="306.8" font-style="normal" font-size="15" fill="#fff" font-weight="normal">cold</text>
  </g>
  <g font-family="sans-serif" pointer-events="none" text-decoration="none" font-style="normal" font-size="15" font-weight="normal">
    <text font-family="sans-serif" stroke="none" opacity="0.8" y="269" text-decoration="none" text-anchor="middle" x="532.8" font-style="normal" font-size="15" fill="#fff" font-weight="normal">cold</text>
  </g>
  <g font-family="sans-serif" pointer-events="none" text-decoration="none" font-style="normal" font-size="15" font-weight="normal">
    <text font-family="sans-serif" stroke="none" opacity="0.8" y="283.2" text-decoration="none" text-anchor="middle" x="459.7" font-style="normal" font-size="15" fill="#fff" font-weight="normal">cool</text>
  </g>
  <g font-family="sans-serif" pointer-events="none" text-decoration="none" font-style="normal" font-size="15" font-weight="normal">
    <text font-family="sans-serif" stroke="none" opacity="0.8" y="198" text-decoration="none" text-anchor="middle" x="419.6" font-style="normal" font-size="15" fill="#fff" font-weight="normal">comfortable</text>
  </g>
  <g font-family="sans-serif" pointer-events="none" text-decoration="none" font-style="normal" font-size="15" font-weight="normal">
    <text font-family="sans-serif" stroke="none" opacity="0.8" y="121.6" text-decoration="none" text-anchor="middle" x="416.7" font-style="normal" font-size="15" fill="#fff" font-weight="normal">warm</text>
  </g>
  <g font-family="sans-serif" pointer-events="none" text-decoration="none" font-style="normal" font-size="15" font-weight="normal">
    <text font-family="sans-serif" stroke="none" opacity="0.8" y="265.5" text-decoration="none" text-anchor="middle" x="646.2" font-style="normal" font-size="15" fill="#fff" font-weight="normal">freezing</text>
  </g>
</svg>